STARTFONT 2.1
FONT -FontForge-Barlow Condensed Medium-Medium-R-Condensed---20-190-75-75-P-78-ISO10646-1
SIZE 19 75 75
FONTBOUNDINGBOX 15 21 0 -4
COMMENT "Generated by fontforge, http://fontforge.sourceforge.net"
COMMENT "Copyright 2017 The Barlow Project Authors (https://github.com/jpt/barlow)"
STARTPROPERTIES 39
FOUNDRY "FontForge"
FAMILY_NAME "Barlow Condensed Medium"
WEIGHT_NAME "Medium"
SLANT "R"
SETWIDTH_NAME "Condensed"
ADD_STYLE_NAME ""
PIXEL_SIZE 20
POINT_SIZE 190
RESOLUTION_X 75
RESOLUTION_Y 75
SPACING "P"
AVERAGE_WIDTH 78
CHARSET_REGISTRY "ISO10646"
CHARSET_ENCODING "1"
FONTNAME_REGISTRY ""
CHARSET_COLLECTIONS "ISO10646-1"
FONT_NAME "BarlowCondensed-Medium"
FACE_NAME "Barlow Condensed Medium"
COPYRIGHT "Copyright 2017 The Barlow Project Authors (https://github.com/jpt/barlow)"
FONT_VERSION "1.408"
FONT_ASCENT 16
FONT_DESCENT 4
UNDERLINE_POSITION -2
UNDERLINE_THICKNESS 1
X_HEIGHT 10
CAP_HEIGHT 13
RAW_ASCENT 800
RAW_DESCENT 200
NORM_SPACE 4
RELATIVE_WEIGHT 50
RELATIVE_SETWIDTH 30
SUPERSCRIPT_X 0
SUPERSCRIPT_Y 7
SUPERSCRIPT_SIZE 12
SUBSCRIPT_X 0
SUBSCRIPT_Y 1
SUBSCRIPT_SIZE 12
AVG_LOWERCASE_WIDTH 78
AVG_UPPERCASE_WIDTH 90
ENDPROPERTIES
CHARS 98
STARTCHAR space
ENCODING 32
SWIDTH 200 0
DWIDTH 4 0
BBX 1 1 0 0
BITMAP
00
ENDCHAR
STARTCHAR exclam
ENCODING 33
SWIDTH 261 0
DWIDTH 5 0
BBX 3 13 1 1
BITMAP
60
60
60
60
60
60
60
60
60
00
00
60
E0
ENDCHAR
STARTCHAR quotedbl
ENCODING 34
SWIDTH 274 0
DWIDTH 5 0
BBX 5 4 0 10
BITMAP
D8
D8
D8
C8
ENDCHAR
STARTCHAR numbersign
ENCODING 35
SWIDTH 599 0
DWIDTH 12 0
BBX 9 13 2 1
BITMAP
3180
3180
3300
FF80
FF80
6300
6300
6300
FF80
FF80
6600
6600
C600
ENDCHAR
STARTCHAR dollar
ENCODING 36
SWIDTH 426 0
DWIDTH 9 0
BBX 8 17 1 -1
BITMAP
08
38
78
7E
66
C3
60
78
38
1C
07
C6
C3
66
7E
1C
08
ENDCHAR
STARTCHAR percent
ENCODING 37
SWIDTH 776 0
DWIDTH 16 0
BBX 12 15 2 0
BITMAP
2000
7040
C8C0
8880
9980
F900
0300
0400
0C00
08E0
1930
1110
3110
2130
20E0
ENDCHAR
STARTCHAR ampersand
ENCODING 38
SWIDTH 564 0
DWIDTH 11 0
BBX 10 15 1 0
BITMAP
0800
3E00
7E00
6300
6300
6600
7E00
1C00
3C00
7640
66C0
C380
6380
7EC0
3CC0
ENDCHAR
STARTCHAR quotesingle
ENCODING 39
SWIDTH 137 0
DWIDTH 3 0
BBX 2 4 0 10
BITMAP
C0
C0
C0
C0
ENDCHAR
STARTCHAR parenleft
ENCODING 40
SWIDTH 254 0
DWIDTH 5 0
BBX 4 17 1 -1
BITMAP
60
70
60
C0
C0
C0
C0
C0
C0
C0
C0
C0
C0
E0
C0
60
60
ENDCHAR
STARTCHAR parenright
ENCODING 41
SWIDTH 254 0
DWIDTH 5 0
BBX 5 17 1 -1
BITMAP
C0
60
60
30
30
38
30
30
30
30
30
30
70
30
30
60
60
ENDCHAR
STARTCHAR asterisk
ENCODING 42
SWIDTH 361 0
DWIDTH 7 0
BBX 7 7 0 8
BITMAP
10
D4
3C
3C
76
10
10
ENDCHAR
STARTCHAR plus
ENCODING 43
SWIDTH 440 0
DWIDTH 9 0
BBX 8 8 1 3
BITMAP
08
18
18
7F
FF
18
18
18
ENDCHAR
STARTCHAR comma
ENCODING 44
SWIDTH 189 0
DWIDTH 4 0
BBX 3 5 1 -1
BITMAP
40
60
60
C0
40
ENDCHAR
STARTCHAR hyphen
ENCODING 45
SWIDTH 320 0
DWIDTH 6 0
BBX 5 1 2 6
BITMAP
F8
ENDCHAR
STARTCHAR period
ENCODING 46
SWIDTH 202 0
DWIDTH 4 0
BBX 3 3 1 0
BITMAP
60
E0
40
ENDCHAR
STARTCHAR slash
ENCODING 47
SWIDTH 363 0
DWIDTH 7 0
BBX 6 14 0 0
BITMAP
0C
0C
0C
18
18
18
30
30
30
30
60
60
60
C0
ENDCHAR
STARTCHAR zero
ENCODING 48
SWIDTH 447 0
DWIDTH 9 0
BBX 8 15 1 0
BITMAP
08
3E
7F
66
C3
C3
C3
C3
C3
C3
C3
C3
66
7E
3E
ENDCHAR
STARTCHAR one
ENCODING 49
SWIDTH 266 0
DWIDTH 5 0
BBX 4 14 1 0
BITMAP
F0
F0
30
30
30
30
30
30
30
30
30
30
30
30
ENDCHAR
STARTCHAR two
ENCODING 50
SWIDTH 415 0
DWIDTH 8 0
BBX 8 15 1 0
BITMAP
10
7C
FE
67
C6
06
06
0C
0C
38
30
30
60
7F
7F
ENDCHAR
STARTCHAR three
ENCODING 51
SWIDTH 418 0
DWIDTH 8 0
BBX 7 14 1 0
BITMAP
FE
0E
0C
0C
38
18
06
06
06
C6
66
66
7C
7C
ENDCHAR
STARTCHAR four
ENCODING 52
SWIDTH 440 0
DWIDTH 9 0
BBX 8 14 0 0
BITMAP
18
18
18
30
30
33
63
63
FF
FF
03
03
03
03
ENDCHAR
STARTCHAR five
ENCODING 53
SWIDTH 420 0
DWIDTH 8 0
BBX 7 14 1 0
BITMAP
FE
C0
C0
C0
C0
D0
FC
7E
06
06
66
66
7C
7C
ENDCHAR
STARTCHAR six
ENCODING 54
SWIDTH 420 0
DWIDTH 8 0
BBX 8 15 1 0
BITMAP
10
7C
7E
6E
C6
C0
FC
7E
66
66
C6
66
67
7C
7C
ENDCHAR
STARTCHAR seven
ENCODING 55
SWIDTH 381 0
DWIDTH 8 0
BBX 7 14 0 0
BITMAP
FE
C6
06
06
0C
0C
0C
0C
18
18
18
18
30
30
ENDCHAR
STARTCHAR eight
ENCODING 56
SWIDTH 429 0
DWIDTH 9 0
BBX 7 15 1 0
BITMAP
10
3C
7E
66
C6
66
7E
3C
E6
66
C6
C6
66
7C
3C
ENDCHAR
STARTCHAR nine
ENCODING 57
SWIDTH 414 0
DWIDTH 8 0
BBX 8 15 1 0
BITMAP
10
7C
7E
66
C6
C6
66
67
7E
06
06
66
67
3E
7C
ENDCHAR
STARTCHAR colon
ENCODING 58
SWIDTH 234 0
DWIDTH 5 0
BBX 3 9 1 1
BITMAP
40
60
60
00
00
00
00
60
E0
ENDCHAR
STARTCHAR semicolon
ENCODING 59
SWIDTH 207 0
DWIDTH 4 0
BBX 3 11 1 -1
BITMAP
60
E0
60
00
00
00
40
60
60
C0
40
ENDCHAR
STARTCHAR less
ENCODING 60
SWIDTH 440 0
DWIDTH 9 0
BBX 8 9 1 2
BITMAP
01
07
0F
3C
E0
70
3C
0F
03
ENDCHAR
STARTCHAR equal
ENCODING 61
SWIDTH 440 0
DWIDTH 9 0
BBX 8 6 1 4
BITMAP
7F
FF
00
00
FF
FF
ENDCHAR
STARTCHAR greater
ENCODING 62
SWIDTH 440 0
DWIDTH 9 0
BBX 8 9 1 2
BITMAP
80
60
78
1E
07
0F
1E
78
C0
ENDCHAR
STARTCHAR question
ENCODING 63
SWIDTH 394 0
DWIDTH 8 0
BBX 7 14 0 1
BITMAP
08
7C
FE
66
C6
06
0E
18
18
18
00
00
18
38
ENDCHAR
STARTCHAR at
ENCODING 64
SWIDTH 759 0
DWIDTH 15 0
BBX 14 14 1 -1
BITMAP
0080
0FE0
3838
310C
63C4
66C4
CCC4
44C4
458C
CCF8
67F0
4000
3040
1FC0
ENDCHAR
STARTCHAR A
ENCODING 65
SWIDTH 436 0
DWIDTH 9 0
BBX 9 14 0 0
BITMAP
1C00
1C00
1C00
3600
3600
3600
3600
3600
6300
3F00
7F00
6300
6180
C180
ENDCHAR
STARTCHAR B
ENCODING 66
SWIDTH 456 0
DWIDTH 9 0
BBX 8 14 1 0
BITMAP
70
CE
C6
C3
C3
C6
FC
CF
C6
C3
C3
C6
7E
F0
ENDCHAR
STARTCHAR C
ENCODING 67
SWIDTH 452 0
DWIDTH 9 0
BBX 8 15 1 0
BITMAP
08
3E
7F
66
C3
C0
C0
C0
C0
C0
C2
C3
66
7E
3E
ENDCHAR
STARTCHAR D
ENCODING 68
SWIDTH 469 0
DWIDTH 9 0
BBX 8 14 1 0
BITMAP
70
CE
C6
C3
C3
C3
C3
C3
C3
C3
C3
C6
7E
70
ENDCHAR
STARTCHAR E
ENCODING 69
SWIDTH 432 0
DWIDTH 9 0
BBX 7 14 1 0
BITMAP
FE
C0
C0
C0
C0
C0
F8
C0
C0
C0
C0
C0
FE
7E
ENDCHAR
STARTCHAR F
ENCODING 70
SWIDTH 410 0
DWIDTH 8 0
BBX 7 14 1 0
BITMAP
FE
C0
C0
C0
C0
C0
F8
C0
C0
C0
C0
C0
C0
C0
ENDCHAR
STARTCHAR G
ENCODING 71
SWIDTH 457 0
DWIDTH 9 0
BBX 8 15 1 0
BITMAP
08
3E
7F
66
C3
C0
C0
CF
CF
C3
C3
C3
66
7E
3E
ENDCHAR
STARTCHAR H
ENCODING 72
SWIDTH 475 0
DWIDTH 10 0
BBX 8 14 1 0
BITMAP
C3
C3
C3
C3
C3
C3
FE
C3
C3
C3
C3
C3
C3
C3
ENDCHAR
STARTCHAR I
ENCODING 73
SWIDTH 220 0
DWIDTH 4 0
BBX 2 14 1 0
BITMAP
C0
C0
C0
C0
C0
C0
C0
C0
C0
C0
C0
C0
C0
C0
ENDCHAR
STARTCHAR J
ENCODING 74
SWIDTH 435 0
DWIDTH 9 0
BBX 8 14 0 0
BITMAP
03
03
03
03
03
03
03
03
C3
C3
C3
66
3E
3E
ENDCHAR
STARTCHAR K
ENCODING 75
SWIDTH 466 0
DWIDTH 9 0
BBX 8 14 1 0
BITMAP
C6
C6
CC
CC
D8
D8
F8
EC
6C
C6
C6
C6
C3
C3
ENDCHAR
STARTCHAR L
ENCODING 76
SWIDTH 407 0
DWIDTH 8 0
BBX 7 14 1 0
BITMAP
C0
C0
C0
C0
C0
C0
C0
C0
C0
C0
C0
C0
FE
7E
ENDCHAR
STARTCHAR M
ENCODING 77
SWIDTH 530 0
DWIDTH 11 0
BBX 9 14 1 0
BITMAP
6300
E380
F700
DF80
DD80
CD80
C980
C180
C180
C180
C180
C180
C180
C180
ENDCHAR
STARTCHAR N
ENCODING 78
SWIDTH 501 0
DWIDTH 10 0
BBX 8 14 1 0
BITMAP
63
E3
73
F3
F3
DB
DB
CF
CF
CF
CF
C7
C7
C3
ENDCHAR
STARTCHAR O
ENCODING 79
SWIDTH 462 0
DWIDTH 9 0
BBX 8 15 1 0
BITMAP
08
3E
7F
63
C3
C3
C3
C3
C3
C3
C3
C3
66
7E
3E
ENDCHAR
STARTCHAR P
ENCODING 80
SWIDTH 451 0
DWIDTH 9 0
BBX 8 14 1 0
BITMAP
F0
CE
C6
C3
C3
C6
7E
C0
C0
C0
C0
C0
C0
C0
ENDCHAR
STARTCHAR Q
ENCODING 81
SWIDTH 450 0
DWIDTH 9 0
BBX 8 17 1 -2
BITMAP
08
3E
7F
66
C3
C3
C3
C3
C3
C3
C3
C3
66
7E
1C
18
18
ENDCHAR
STARTCHAR R
ENCODING 82
SWIDTH 453 0
DWIDTH 9 0
BBX 8 14 1 0
BITMAP
FC
CF
C6
C3
C3
C6
FE
CC
CC
C6
C6
C6
C3
C3
ENDCHAR
STARTCHAR S
ENCODING 83
SWIDTH 426 0
DWIDTH 9 0
BBX 8 15 1 0
BITMAP
10
7C
FE
66
C3
60
78
38
1C
07
C6
C3
66
3E
3E
ENDCHAR
STARTCHAR T
ENCODING 84
SWIDTH 439 0
DWIDTH 9 0
BBX 8 14 1 0
BITMAP
FF
18
18
18
18
18
18
18
18
18
18
18
18
18
ENDCHAR
STARTCHAR U
ENCODING 85
SWIDTH 477 0
DWIDTH 10 0
BBX 8 14 1 0
BITMAP
C3
C3
C3
C3
C3
C3
C3
C3
C3
C3
C3
66
3E
3E
ENDCHAR
STARTCHAR V
ENCODING 86
SWIDTH 457 0
DWIDTH 9 0
BBX 7 14 2 0
BITMAP
C6
C6
C6
C6
CC
6C
6C
6C
6C
78
78
38
30
30
ENDCHAR
STARTCHAR W
ENCODING 87
SWIDTH 646 0
DWIDTH 13 0
BBX 11 14 2 0
BITMAP
CC60
CC60
CE60
CE60
CE60
7BC0
7BC0
6BC0
73C0
7380
3B80
3B80
3980
1100
ENDCHAR
STARTCHAR X
ENCODING 88
SWIDTH 449 0
DWIDTH 9 0
BBX 8 14 1 0
BITMAP
63
66
36
36
3C
1C
18
1C
3C
36
36
66
63
C3
ENDCHAR
STARTCHAR Y
ENCODING 89
SWIDTH 442 0
DWIDTH 9 0
BBX 7 13 2 1
BITMAP
C6
CC
CC
6C
78
38
38
30
30
30
30
30
30
ENDCHAR
STARTCHAR Z
ENCODING 90
SWIDTH 401 0
DWIDTH 8 0
BBX 7 14 1 0
BITMAP
FE
06
06
0C
0C
18
18
30
30
30
60
60
FE
FE
ENDCHAR
STARTCHAR bracketleft
ENCODING 91
SWIDTH 318 0
DWIDTH 6 0
BBX 4 18 1 -2
BITMAP
F0
F0
C0
C0
C0
C0
C0
C0
C0
C0
C0
C0
C0
C0
C0
C0
F0
F0
ENDCHAR
STARTCHAR backslash
ENCODING 92
SWIDTH 363 0
DWIDTH 7 0
BBX 5 14 2 0
BITMAP
C0
C0
C0
60
60
60
60
30
30
30
18
18
18
18
ENDCHAR
STARTCHAR bracketright
ENCODING 93
SWIDTH 318 0
DWIDTH 6 0
BBX 5 18 2 -2
BITMAP
F0
F0
30
30
30
30
30
30
30
30
30
30
30
30
30
30
78
F0
ENDCHAR
STARTCHAR asciicircum
ENCODING 94
SWIDTH 406 0
DWIDTH 8 0
BBX 6 7 2 7
BITMAP
70
70
78
78
CC
CC
CC
ENDCHAR
STARTCHAR underscore
ENCODING 95
SWIDTH 392 0
DWIDTH 8 0
BBX 7 2 1 0
BITMAP
FE
FE
ENDCHAR
STARTCHAR grave
ENCODING 96
SWIDTH 194 0
DWIDTH 4 0
BBX 2 2 1 12
BITMAP
C0
C0
ENDCHAR
STARTCHAR a
ENCODING 97
SWIDTH 425 0
DWIDTH 8 0
BBX 8 11 1 0
BITMAP
08
3E
76
06
0E
7E
66
C6
C6
7F
7E
ENDCHAR
STARTCHAR b
ENCODING 98
SWIDTH 431 0
DWIDTH 9 0
BBX 8 14 1 0
BITMAP
C0
C0
C0
C8
FC
6E
C6
C6
C6
C6
C6
67
7E
DC
ENDCHAR
STARTCHAR c
ENCODING 99
SWIDTH 413 0
DWIDTH 8 0
BBX 7 11 1 0
BITMAP
10
3C
66
C6
C0
C0
C0
C6
66
7C
7C
ENDCHAR
STARTCHAR d
ENCODING 100
SWIDTH 431 0
DWIDTH 9 0
BBX 7 14 1 0
BITMAP
06
06
06
16
7E
6E
C6
C6
C6
C6
C6
66
7E
76
ENDCHAR
STARTCHAR e
ENCODING 101
SWIDTH 417 0
DWIDTH 8 0
BBX 7 11 1 0
BITMAP
10
7C
6E
C6
C6
FE
C0
C0
66
7C
7C
ENDCHAR
STARTCHAR f
ENCODING 102
SWIDTH 285 0
DWIDTH 6 0
BBX 5 15 0 0
BITMAP
08
38
38
30
78
F8
60
60
60
60
60
60
60
60
60
ENDCHAR
STARTCHAR g
ENCODING 103
SWIDTH 423 0
DWIDTH 8 0
BBX 8 15 1 -4
BITMAP
16
7E
67
C6
C6
C6
C6
C6
67
7E
16
06
06
3C
30
ENDCHAR
STARTCHAR h
ENCODING 104
SWIDTH 432 0
DWIDTH 9 0
BBX 7 14 1 0
BITMAP
C0
C0
C0
C8
FC
6E
C6
C6
C6
C6
C6
C6
C6
C6
ENDCHAR
STARTCHAR i
ENCODING 105
SWIDTH 212 0
DWIDTH 4 0
BBX 2 15 2 0
BITMAP
80
C0
C0
00
C0
C0
C0
C0
C0
C0
C0
C0
C0
C0
C0
ENDCHAR
STARTCHAR j
ENCODING 106
SWIDTH 206 0
DWIDTH 4 0
BBX 3 19 0 -4
BITMAP
20
60
60
00
60
60
60
60
60
60
60
60
60
60
60
60
E0
E0
C0
ENDCHAR
STARTCHAR k
ENCODING 107
SWIDTH 421 0
DWIDTH 8 0
BBX 7 14 1 0
BITMAP
C0
C0
C0
C6
CC
CC
D8
F8
7C
6C
CC
C6
C6
C6
ENDCHAR
STARTCHAR l
ENCODING 108
SWIDTH 191 0
DWIDTH 4 0
BBX 2 14 1 0
BITMAP
C0
C0
C0
C0
C0
C0
C0
C0
C0
C0
C0
C0
C0
C0
ENDCHAR
STARTCHAR m
ENCODING 109
SWIDTH 657 0
DWIDTH 13 0
BBX 12 11 1 0
BITMAP
D040
7EE0
6760
C630
C630
C630
C630
C630
C630
C630
C230
ENDCHAR
STARTCHAR n
ENCODING 110
SWIDTH 432 0
DWIDTH 9 0
BBX 7 11 1 0
BITMAP
C8
FC
6E
C6
C6
C6
C6
C6
C6
C6
C6
ENDCHAR
STARTCHAR o
ENCODING 111
SWIDTH 424 0
DWIDTH 8 0
BBX 8 11 1 0
BITMAP
10
7C
67
C6
C6
C6
C6
C6
67
7C
7C
ENDCHAR
STARTCHAR p
ENCODING 112
SWIDTH 435 0
DWIDTH 9 0
BBX 7 14 1 -3
BITMAP
D0
FC
6E
C6
C6
C6
C6
C6
6E
7E
DC
C0
C0
C0
ENDCHAR
STARTCHAR q
ENCODING 113
SWIDTH 435 0
DWIDTH 9 0
BBX 7 14 1 -3
BITMAP
16
7E
6E
C6
C6
C6
C6
C6
66
7E
76
06
06
06
ENDCHAR
STARTCHAR r
ENCODING 114
SWIDTH 304 0
DWIDTH 6 0
BBX 5 11 1 0
BITMAP
D8
F8
70
60
C0
C0
C0
C0
C0
C0
C0
ENDCHAR
STARTCHAR s
ENCODING 115
SWIDTH 387 0
DWIDTH 8 0
BBX 7 11 1 0
BITMAP
10
7C
66
C0
70
7C
1C
06
C6
7E
7C
ENDCHAR
STARTCHAR t
ENCODING 116
SWIDTH 275 0
DWIDTH 6 0
BBX 5 13 0 0
BITMAP
60
60
78
F8
60
60
60
60
60
60
30
38
08
ENDCHAR
STARTCHAR u
ENCODING 117
SWIDTH 432 0
DWIDTH 9 0
BBX 7 11 1 0
BITMAP
C6
C6
C6
C6
C6
C6
C6
C6
6E
FE
7E
ENDCHAR
STARTCHAR v
ENCODING 118
SWIDTH 399 0
DWIDTH 8 0
BBX 7 11 1 0
BITMAP
C6
CC
CC
CC
CC
78
78
78
38
38
30
ENDCHAR
STARTCHAR w
ENCODING 119
SWIDTH 575 0
DWIDTH 12 0
BBX 11 11 0 0
BITMAP
C460
6660
6E60
6E60
6BC0
6AC0
3DC0
39C0
39C0
19C0
1880
ENDCHAR
STARTCHAR x
ENCODING 120
SWIDTH 398 0
DWIDTH 8 0
BBX 8 11 0 0
BITMAP
C3
76
66
3C
1C
1C
1C
3C
66
66
C3
ENDCHAR
STARTCHAR y
ENCODING 121
SWIDTH 387 0
DWIDTH 8 0
BBX 8 14 0 -3
BITMAP
63
66
66
66
66
3C
3C
3C
1C
1C
18
18
18
F0
ENDCHAR
STARTCHAR z
ENCODING 122
SWIDTH 365 0
DWIDTH 7 0
BBX 6 11 2 0
BITMAP
FC
FC
18
18
38
60
E0
C0
C0
FC
FC
ENDCHAR
STARTCHAR braceleft
ENCODING 123
SWIDTH 298 0
DWIDTH 6 0
BBX 6 18 1 -2
BITMAP
1C
3C
30
30
30
30
30
30
E0
60
30
30
30
30
30
30
78
38
ENDCHAR
STARTCHAR bar
ENCODING 124
SWIDTH 159 0
DWIDTH 3 0
BBX 2 17 1 -1
BITMAP
C0
C0
C0
C0
C0
C0
C0
C0
C0
C0
C0
C0
C0
C0
C0
C0
C0
ENDCHAR
STARTCHAR braceright
ENCODING 125
SWIDTH 298 0
DWIDTH 6 0
BBX 5 18 1 -2
BITMAP
40
F0
38
30
30
30
30
30
38
18
30
30
30
30
30
30
F0
70
ENDCHAR
STARTCHAR asciitilde
ENCODING 126
SWIDTH 471 0
DWIDTH 9 0
BBX 8 3 2 5
BITMAP
20
7F
EE
ENDCHAR
STARTCHAR exclamdown
ENCODING 161
SWIDTH 261 0
DWIDTH 5 0
BBX 3 14 1 1
BITMAP
40
60
E0
00
00
60
60
60
60
60
60
60
60
60
ENDCHAR
STARTCHAR degree
ENCODING 176
SWIDTH 358 0
DWIDTH 7 0
BBX 6 7 1 10
BITMAP
20
70
C8
84
84
C8
70
ENDCHAR
STARTCHAR questiondown
ENCODING 191
SWIDTH 394 0
DWIDTH 8 0
BBX 7 14 1 -4
BITMAP
18
1C
00
00
18
18
18
70
70
66
C6
66
7C
7C
ENDCHAR
ENDFONT
